<?xml version="1.0" encoding="UTF-8"?>
<svg version="1.1" xmlns="http://www.w3.org/2000/svg" width="26" height="26">
<path d="M0 0 C5.08073659 0.03959016 7.93200241 0.83000217 11.8125 4.3125 C14.23380331 7.94445496 14.02272785 9.69599348 13.9375 14 C13.91945313 15.17949219 13.90140625 16.35898437 13.8828125 17.57421875 C13.85960938 18.47785156 13.83640625 19.38148437 13.8125 20.3125 C12.760625 20.60125 11.70875 20.89 10.625 21.1875 C6.98488752 22.16150363 6.98488752 22.16150363 4.375 23.4375 C0.80023341 24.65815201 -2.49196357 25.01126615 -6.1875 24.3125 C-8.96500685 22.94429895 -10.07254506 21.74469818 -12.1875 19.3125 C-12.5625 16 -12.5625 16 -12.1875 13.3125 C-10.5375 13.3125 -8.8875 13.3125 -7.1875 13.3125 C-7.39375 12.631875 -7.6 11.95125 -7.8125 11.25 C-8.29090819 7.5024692 -7.413169 4.85332156 -6.1875 1.3125 C-4.47957001 -0.39542999 -2.33206519 0.05979654 0 0 Z M-4.1875 2.3125 C-5.23452186 6.0389085 -5.26192057 9.44263042 -5.1875 13.3125 C-0.8975 13.3125 3.3925 13.3125 7.8125 13.3125 C7.4825 15.2925 7.1525 17.2725 6.8125 19.3125 C8.4625 19.3125 10.1125 19.3125 11.8125 19.3125 C12.53469068 12.03515339 12.53469068 12.03515339 9.8125 5.625 C9.1525 5.191875 8.4925 4.75875 7.8125 4.3125 C7.8125 4.9725 7.8125 5.6325 7.8125 6.3125 C7.1525 6.3125 6.4925 6.3125 5.8125 6.3125 C5.8125 7.3025 5.8125 8.2925 5.8125 9.3125 C5.1525 9.3125 4.4925 9.3125 3.8125 9.3125 C4.1875 6.875 4.1875 6.875 4.8125 4.3125 C5.4725 3.9825 6.1325 3.6525 6.8125 3.3125 C4.40704362 2.10977181 2.86253047 2.21178528 0.1875 2.25 C-0.62976563 2.25902344 -1.44703125 2.26804688 -2.2890625 2.27734375 C-2.91554688 2.28894531 -3.54203125 2.30054688 -4.1875 2.3125 Z M-8.1875 15.3125 C-7.5275 15.9725 -6.8675 16.6325 -6.1875 17.3125 C-5.8575 16.6525 -5.5275 15.9925 -5.1875 15.3125 C-6.1775 15.3125 -7.1675 15.3125 -8.1875 15.3125 Z M0.8125 15.3125 C1.4725 15.9725 2.1325 16.6325 2.8125 17.3125 C2.8125 16.6525 2.8125 15.9925 2.8125 15.3125 C2.1525 15.3125 1.4925 15.3125 0.8125 15.3125 Z M-1.1875 17.3125 C-0.8575 18.3025 -0.5275 19.2925 -0.1875 20.3125 C-0.1875 19.3225 -0.1875 18.3325 -0.1875 17.3125 C-0.5175 17.3125 -0.8475 17.3125 -1.1875 17.3125 Z " fill="#32CDCD" transform="translate(12.1875,0.6875)"/>
<path d="M0 0 C5.08073659 0.03959016 7.93200241 0.83000217 11.8125 4.3125 C14.23380331 7.94445496 14.02272785 9.69599348 13.9375 14 C13.91945313 15.17949219 13.90140625 16.35898437 13.8828125 17.57421875 C13.85960938 18.47785156 13.83640625 19.38148437 13.8125 20.3125 C7.0625 22.3125 7.0625 22.3125 4.8125 22.3125 C5.1425 21.3225 5.4725 20.3325 5.8125 19.3125 C7.7925 19.3125 9.7725 19.3125 11.8125 19.3125 C11.4825 18.3225 11.1525 17.3325 10.8125 16.3125 C10.7838556 14.28283967 10.8766685 12.27726136 10.97265625 10.25 C10.94272844 7.98321664 10.94272844 7.98321664 8.8125 5.3125 C7.8225 5.6425 6.8325 5.9725 5.8125 6.3125 C5.8125 7.3025 5.8125 8.2925 5.8125 9.3125 C5.1525 9.3125 4.4925 9.3125 3.8125 9.3125 C4.1425 7.3325 4.4725 5.3525 4.8125 3.3125 C1.8425 3.3125 -1.1275 3.3125 -4.1875 3.3125 C-4.5175 6.6125 -4.8475 9.9125 -5.1875 13.3125 C-5.8475 13.3125 -6.5075 13.3125 -7.1875 13.3125 C-8.55632012 8.79539361 -7.71132612 5.71466435 -6.1875 1.3125 C-4.47957001 -0.39542999 -2.33206519 0.05979654 0 0 Z " fill="#000202" transform="translate(12.1875,0.6875)"/>
<path d="M0 0 C-0.99 1.485 -0.99 1.485 -2 3 C-2 2.34 -2 1.68 -2 1 C-3.65 1.33 -5.3 1.66 -7 2 C-7 3.65 -7 5.3 -7 7 C-5.081875 6.938125 -5.081875 6.938125 -3.125 6.875 C-0.9453125 6.8046875 -0.9453125 6.8046875 1 7 C1.66 7.66 2.32 8.32 3 9 C-0.96 9 -4.92 9 -9 9 C-9 3 -9 3 -8 1 C-5.07175348 0.02391783 -3.04386724 -0.08226668 0 0 Z " fill="#054B4B" transform="translate(17,4)"/>
<path d="M0 0 C0.33 0 0.66 0 1 0 C1 2.97 1 5.94 1 9 C0.01 8.67 -0.98 8.34 -2 8 C-1.34 5.36 -0.68 2.72 0 0 Z " fill="#085151" transform="translate(22,10)"/>
<path d="M0 0 C0.66 1.32 1.32 2.64 2 4 C0.68 3.67 -0.64 3.34 -2 3 C-1.34 2.01 -0.68 1.02 0 0 Z " fill="#158A8A" transform="translate(2,9)"/>
<path d="M0 0 C1.33332095 2.6666419 0.67102033 4.16680303 0 7 C-0.33 7 -0.66 7 -1 7 C-1.04254356 5.00045254 -1.04080783 2.99958364 -1 1 C-0.67 0.67 -0.34 0.34 0 0 Z " fill="#000000" transform="translate(4,1)"/>
<path d="M0 0 C0.66 0 1.32 0 2 0 C2 0.99 2 1.98 2 3 C1.34 3 0.68 3 0 3 C0 2.01 0 1.02 0 0 Z " fill="#000000" transform="translate(20,7)"/>
<path d="M0 0 C1.65 0 3.3 0 5 0 C5 0.33 5 0.66 5 1 C3.35 1 1.7 1 0 1 C0 0.67 0 0.34 0 0 Z " fill="#000000" transform="translate(20,23)"/>
<path d="M0 0 C0.99 0.99 1.98 1.98 3 3 C2.01 2.67 1.02 2.34 0 2 C0 1.34 0 0.68 0 0 Z " fill="#0AF4F4" transform="translate(0,21)"/>
<path d="M0 0 C4 1 4 1 4 1 Z " fill="#093D3D" transform="translate(16,24)"/>
<path d="M0 0 C0.99 0.33 1.98 0.66 3 1 C2.01 1 1.02 1 0 1 C0 0.67 0 0.34 0 0 Z " fill="#000000" transform="translate(19,0)"/>
<path d="" fill="#000000" transform="translate(0,0)"/>
<path d="M0 0 C2 1 2 1 2 1 Z " fill="#40BFBF" transform="translate(14,25)"/>
<path d="M0 0 C2 1 2 1 2 1 Z " fill="#000000" transform="translate(18,10)"/>
<path d="M0 0 C2 1 2 1 2 1 Z " fill="#000000" transform="translate(5,0)"/>
<path d="" fill="#2BD5D5" transform="translate(0,0)"/>
<path d="" fill="#2BD5D5" transform="translate(0,0)"/>
<path d="" fill="#000000" transform="translate(0,0)"/>
<path d="" fill="#00FFFF" transform="translate(0,0)"/>
<path d="" fill="#000000" transform="translate(0,0)"/>
<path d="" fill="#000000" transform="translate(0,0)"/>
<path d="" fill="#000000" transform="translate(0,0)"/>
<path d="" fill="#000000" transform="translate(0,0)"/>
<path d="" fill="#000000" transform="translate(0,0)"/>
<path d="" fill="#000000" transform="translate(0,0)"/>
</svg>
